<svg id="Capa_1" enable-background="new 0 0 512.03 512.03" height="512" viewBox="0 0 512.03 512.03" width="512" xmlns="http://www.w3.org/2000/svg"><g><path d="m39.206 408.842h12.604c44.195 0 78.827-13.304 100.096-24.465 23.284-12.218 36.191-24.645 36.318-24.769l16.601-16.287c-13.927-25.993-40.486-44.247-71.791-46.169-49.516-2.834-92.01 36.093-92.01 87.349 0 8.132-.449 15.533-1.818 24.341z"/><path d="m214.621 375.738-5.402 5.3c-2.382 2.344-59.856 57.804-157.409 57.804h-20.315c-7.093 19.572-16.302 34.293-28.071 48.649-8.01 9.771-1.045 24.511 11.598 24.511 2.251 0-6.876 1.772 109.047-22.581 38.039-7.724 69.188-33.849 83.414-69.94 6.317-14.132 8.534-29.124 7.138-43.743z"/><path d="m507.63 4.394c-5.112-5.112-13.145-5.851-19.102-1.756l-208.876 143.544c-49.028 33.62-91.303 75.25-125.68 123.735 43.541 9.946 78.188 44.53 88.128 88.137 48.49-34.378 90.127-76.656 123.74-125.677l143.547-208.88c4.094-5.959 3.356-13.991-1.757-19.103z"/></g></svg>